PathFileType  4	(X/Y/Z) C:\Users\antoi\Documents\MyRepositories\mobilecap\ResultsAnalysis
DataRate	CameraRate	NumFrames	NumMarkers	Units	OrigDataRate	OrigDataStartFrame	OrigNumFrames
100.0	100.0	7	51	mm	100.0	19	146
Frame#	Time	r_knee			r_shank_antsup			r_ankle			r_calc			r_5meta			r_toe			L_knee			L_shank_antsup			L_ankle			L_calc			L_5meta			L_toe			r_sh2			r_sh3			r_sh4			L_sh2			L_sh3			r_thigh1			r_thigh2			r_thigh3			r_thigh4			r_thigh5			L_thigh1			L_thigh2			L_thigh3			L_thigh4			r.ASIS			r.PSIS			L.ASIS			L.PSIS			C7			R_Shoulder			L_Shoulder			R_Sternum			L_Sternum			R_humerus			R_elbow_med			R_elbow_lat			R_forearm			R_wrist_radius			R_wrist_ulna			L_humerus			L_elbow_med			L_elbow_lat			L_forearm			L_wrist_radius			L_wrist_ulna			R_HJC			L_HJC			R_HJC_reg			L_HJC_reg			
		X1	Y1	Z1	X2	Y2	Z2	X3	Y3	Z3	X4	Y4	Z4	X5	Y5	Z5	X6	Y6	Z6	X7	Y7	Z7	X8	Y8	Z8	X9	Y9	Z9	X10	Y10	Z10	X11	Y11	Z11	X12	Y12	Z12	X13	Y13	Z13	X14	Y14	Z14	X15	Y15	Z15	X16	Y16	Z16	X17	Y17	Z17	X18	Y18	Z18	X19	Y19	Z19	X20	Y20	Z20	X21	Y21	Z21	X22	Y22	Z22	X23	Y23	Z23	X24	Y24	Z24	X25	Y25	Z25	X26	Y26	Z26	X27	Y27	Z27	X28	Y28	Z28	X29	Y29	Z29	X30	Y30	Z30	X31	Y31	Z31	X32	Y32	Z32	X33	Y33	Z33	X34	Y34	Z34	X35	Y35	Z35	X36	Y36	Z36	X37	Y37	Z37	X38	Y38	Z38	X39	Y39	Z39	X40	Y40	Z40	X41	Y41	Z41	X42	Y42	Z42	X43	Y43	Z43	X44	Y44	Z44	X45	Y45	Z45	X46	Y46	Z46	X47	Y47	Z47	X48	Y48	Z48	X49	Y49	Z49	X50	Y50	Z50	X51	Y51	Z51	

19	0.18000000	126.66828	539.98885	-18.57017	155.66589	460.05388	-8.11392	125.78058	95.03568	-44.44093	71.43459	52.55224	-95.37689	278.06186	39.12588	-24.48802	308.34298	79.68258	-75.84869	81.23336	523.33928	-318.37677	17.81317	425.19169	-322.62389	-271.48791	283.66860	-261.08108	-338.97024	313.60686	-204.69761	-259.24386	121.40254	-316.91878	-215.20276	112.37275	-259.49780	159.63834	347.17441	-5.77703	81.27166	457.68396	9.15045	74.62058	343.43298	3.12208	-28.33116	502.80573	-325.65259	-124.10749	431.86113	-310.03379	143.03790	865.10847	19.45939	171.73983	759.85398	4.27515	125.92809	717.64197	29.92507	35.13701	829.78494	24.02009	69.90178	719.65002	16.83288	113.47460	845.10102	-335.89870	146.94106	711.98984	-340.31023	0.79271	815.20224	-326.14461	40.02780	682.46823	-332.73789	138.06360	1050.63116	-36.90697	-63.50453	1091.90465	-103.33403	118.29678	1026.47067	-293.97450	-70.63545	1082.03240	-206.26845	-33.58788	1598.51268	-161.64982	18.67986	1556.99608	8.44196	24.05965	1582.85503	-305.74214	118.64086	1522.09857	-125.84577	121.92395	1522.09218	-180.51721	-40.21715	1290.65299	89.81732	-68.90401	1203.98419	7.56549	-72.65059	1207.91452	90.40261	-22.43036	1057.20618	122.52676	15.07361	945.73723	122.90090	-30.18650	948.17106	127.20323	63.93005	1351.62707	-433.19059	37.10039	1235.94810	-398.20187	67.02818	1263.73840	-459.62882	222.01687	1174.48601	-450.31284	308.51479	1133.74838	-421.41185	291.76483	1103.25289	-445.92947	48.59860	975.58686	-29.86187	33.26779	954.43979	-258.74594	57.36183	975.74944	-61.10580	45.60407	959.46899	-230.83635	
20	0.19000000	130.83818	540.18518	-17.62604	159.08773	459.92887	-7.17116	126.06824	95.11628	-44.26452	71.34456	53.16944	-95.17080	278.27850	38.29513	-24.36439	308.63238	78.74991	-75.99250	102.52654	527.03197	-318.15080	38.96867	429.74305	-321.59486	-250.94708	290.50199	-257.04722	-317.95188	319.04323	-199.63908	-237.59671	128.79218	-314.59078	-192.27470	119.28910	-257.89113	161.99644	347.00453	-5.01682	84.59654	458.22674	9.90190	76.90087	344.04200	3.70471	-6.54673	507.72103	-323.55567	-102.89257	437.61476	-307.32215	151.63214	865.31566	20.93793	179.08033	759.67001	5.64898	132.30678	717.99328	31.24657	43.30183	831.48085	24.90955	76.55189	720.84499	17.72838	127.19980	848.51462	-335.47026	163.79490	716.17978	-340.44889	15.19989	815.96441	-325.46251	57.67167	684.30784	-332.44424	148.93309	1051.89577	-35.33866	-52.49387	1093.47569	-102.26923	129.32559	1028.18715	-292.69390	-59.59001	1083.43777	-205.24918	-22.42488	1600.09478	-160.89888	30.44315	1558.91755	9.13558	34.72207	1584.06027	-305.38207	129.92443	1523.66979	-125.36830	132.99867	1523.58365	-180.13723	-28.02846	1292.88332	91.73622	-57.16203	1205.85226	9.94356	-60.43356	1210.08809	92.82425	-9.68585	1059.66835	125.26677	28.07333	948.32206	125.92645	-17.10904	950.59369	130.36241	71.06346	1351.16793	-431.50539	42.56707	1236.33632	-395.48334	72.78681	1263.03778	-457.14744	225.62805	1170.04506	-448.27432	310.63988	1126.83756	-419.23888	293.46095	1096.89122	-444.00459	59.38052	976.92027	-28.70590	44.37242	956.04416	-257.63468	68.11839	977.51222	-59.53228	56.41391	960.95487	-229.39594	
21	0.20000000	135.05053	540.33200	-16.77457	162.55744	459.78407	-6.38120	126.48158	95.21475	-44.19496	71.36486	53.72863	-95.02157	278.52567	37.48734	-24.26770	308.95145	77.69500	-76.20073	123.44974	530.88085	-317.92536	60.04553	434.18372	-320.70859	-229.66416	295.47285	-253.47661	-296.67798	322.45872	-195.49359	-214.00712	134.19583	-311.86889	-167.75527	125.00524	-255.68470	164.44630	346.82489	-4.38791	87.97233	458.72994	10.57128	79.29038	344.60508	4.20810	14.78221	512.32474	-321.48850	-81.86927	442.68433	-304.76507	160.15387	865.35426	22.43998	186.41755	759.37816	6.94324	138.66763	718.28602	32.47474	51.44194	833.00399	25.79820	83.21474	721.91665	18.59143	140.90424	852.06074	-334.99700	180.51378	720.54471	-340.44615	29.57806	816.98271	-325.03718	75.27015	686.37588	-332.36115	159.68533	1053.01901	-33.70684	-41.52661	1094.95753	-101.20380	140.43702	1029.96121	-291.32003	-48.56886	1084.93034	-204.28321	-11.30025	1601.58426	-160.30583	41.98446	1560.82705	9.68631	45.35209	1585.09931	-305.18540	141.16663	1525.20255	-124.98054	144.07437	1525.02163	-179.86746	-15.93512	1295.09431	93.53864	-45.42756	1207.68451	12.20408	-48.27747	1212.25166	95.12864	3.01922	1062.15553	128.02168	41.06558	950.93651	129.09182	-4.09216	953.06929	133.56849	78.06870	1350.54425	-429.86887	47.94490	1236.58777	-392.74685	78.40613	1262.17734	-454.66425	228.91829	1165.38473	-446.29803	312.41138	1119.54475	-417.44635	294.70313	1090.30283	-442.20674	70.02250	978.11660	-27.58727	55.49971	957.71179	-256.58779	78.84817	979.05505	-58.02776	67.23516	962.52000	-228.01310	
22	0.21000000	139.29971	540.42117	-16.03510	166.06865	459.60884	-5.75422	126.99875	95.31845	-44.26195	71.48467	54.18248	-94.94501	278.78169	36.78264	-24.21400	309.29066	76.58833	-76.47895	144.05473	534.75596	-317.68546	81.12057	438.30661	-319.93120	-207.66155	298.47835	-250.42641	-275.06450	323.91891	-192.29705	-188.80408	137.45238	-308.75771	-141.93141	129.27862	-252.89014	166.95905	346.61793	-3.91722	91.38582	459.18550	11.10654	81.75444	345.12311	4.58024	35.73404	516.40701	-319.59686	-60.94651	446.85894	-302.47099	168.63903	865.21996	23.93075	193.75236	758.95927	8.13612	145.05293	718.50998	33.57880	59.58115	834.34742	26.70368	89.91310	722.85985	19.40314	154.61533	855.66058	-334.47534	197.10716	725.00351	-340.30377	43.94067	818.21087	-324.81439	92.77809	688.61571	-332.46737	170.33737	1053.98799	-32.03697	-30.60051	1096.33982	-100.11104	151.59565	1031.73829	-289.85233	-37.57281	1086.46586	-203.32870	-0.19020	1602.94973	-159.87178	53.31893	1562.71637	10.09810	55.97386	1585.94958	-305.13205	152.37896	1526.67308	-124.66913	155.15918	1526.37121	-179.68767	-3.95220	1297.27925	95.21910	-33.65846	1209.46779	14.34474	-36.17912	1214.40028	97.29619	15.67052	1064.65102	130.76841	54.05475	953.56369	132.37745	8.85620	955.58220	136.79884	84.97214	1349.73447	-428.26750	53.24295	1236.70005	-389.98103	83.87859	1261.13778	-452.16944	231.88447	1160.51279	-444.38430	313.90557	1111.97070	-416.05793	295.50509	1083.51156	-440.53115	80.54866	979.16866	-26.48403	66.62006	959.39447	-255.57516	89.54233	980.38902	-56.58561	78.05331	964.11875	-226.66507	
23	0.22000000	143.56819	540.44680	-15.41984	169.61343	459.39685	-5.28551	127.57750	95.41695	-44.46217	71.67260	54.52320	-94.94541	279.02029	36.23550	-24.20916	309.64570	75.49829	-76.82984	164.36508	538.54438	-317.41730	102.25618	441.93333	-319.21022	-184.99440	299.52709	-247.88187	-253.04977	323.46841	-189.96330	-162.23049	138.61178	-305.36316	-114.98819	132.03018	-249.63765	169.51024	346.37481	-3.61059	94.84192	459.58783	11.49406	84.26574	345.60187	4.80629	56.37785	519.77956	-318.03230	-40.02823	449.92462	-300.55298	177.12683	864.92155	25.34808	201.09355	758.40126	9.19504	151.49876	718.64473	34.53657	67.72629	835.51991	27.62025	96.65960	723.67100	20.14158	168.33462	859.24376	-333.89425	213.56143	729.48448	-340.01926	58.28615	819.61321	-324.71303	110.13280	690.97426	-332.72974	180.90693	1054.79463	-30.34266	-19.71837	1097.60266	-98.97670	162.75706	1033.45401	-288.29605	-26.60512	1087.97956	-202.35015	10.92594	1604.16500	-159.60238	64.47958	1564.57328	10.37521	66.61268	1586.59160	-305.20670	163.56781	1528.05481	-124.42626	166.25281	1527.59601	-179.58074	7.90972	1299.43284	96.77933	-21.81328	1211.18191	16.37500	-24.13961	1216.52138	99.31977	28.25188	1067.13570	133.49083	67.04338	956.18505	135.76002	21.73086	958.11217	140.03409	91.80289	1348.71641	-426.68980	58.46741	1236.67826	-387.17823	89.19753	1259.90604	-449.65487	234.51948	1155.43316	-442.54572	315.12679	1104.20990	-415.02137	295.88013	1076.54183	-438.96870	90.98324	980.06972	-25.37170	77.70700	961.02915	-254.56313	100.18838	981.52668	-55.18437	88.85302	965.68697	-225.32487	
24	0.23000000	147.84116	540.40753	-14.92709	173.18661	459.14372	-4.95644	128.16363	95.50690	-44.75672	71.89184	54.77293	-95.01684	279.21667	35.86302	-24.24818	310.01632	74.47500	-77.24454	184.37363	542.16078	-317.10312	123.48505	444.95096	-318.49600	-161.71652	298.71448	-245.78075	-230.59434	321.13206	-188.32611	-134.41621	137.89596	-301.86561	-87.01526	133.32943	-246.13729	172.08570	346.09514	-3.45203	98.35946	459.93497	11.75423	86.81315	346.04641	4.90585	76.75060	522.31333	-316.91041	-19.04420	451.71332	-299.09228	185.65305	864.47739	26.62782	208.45429	757.70276	10.09049	158.03572	718.66931	35.34053	75.87533	836.54252	28.52725	103.45426	724.35298	20.79294	182.04604	862.75524	-333.23553	229.85083	733.92815	-339.58819	72.59665	821.15911	-324.64810	127.27473	693.40124	-333.10919	191.41121	1055.43202	-28.62997	-8.88314	1098.72335	-97.80015	173.88018	1035.04781	-286.66231	-15.67082	1089.40030	-201.32589	22.06173	1605.21440	-159.50497	75.51040	1566.38272	10.52140	77.29689	1587.01070	-305.40066	174.73541	1529.32244	-124.24999	177.35219	1528.66598	-179.53365	19.64703	1301.55084	98.22645	-9.87490	1212.81298	18.30482	-12.16412	1218.59763	101.20418	40.74874	1069.59223	136.18112	80.01674	958.78599	139.21356	34.52680	960.64004	143.25807	98.58795	1347.47649	-425.12750	63.62023	1236.53408	-384.33424	94.36322	1258.48166	-447.11532	236.81107	1150.14823	-440.80403	316.03324	1096.33278	-414.24275	295.83440	1069.41842	-437.50861	101.34793	980.81204	-24.23152	88.74192	962.55209	-253.52486	110.77594	982.48394	-53.79470	99.61799	967.15748	-223.96472	
25	0.24000000	152.11836	540.30766	-14.53955	176.78890	458.84546	-4.73868	128.70641	95.59355	-45.08625	72.11137	54.96562	-95.14556	279.35331	35.64700	-24.31793	310.40341	73.54358	-77.69938	204.05640	545.55339	-316.72087	144.80811	447.32859	-317.75569	-137.85497	296.18881	-244.04368	-207.66693	316.92920	-187.19092	-105.39446	135.63038	-298.47692	-58.03604	133.34796	-242.62958	174.68318	345.78362	-3.40908	101.95995	460.22955	11.92739	89.40210	346.45853	4.92142	96.85283	523.95896	-316.28112	2.03588	452.14679	-298.11216	194.23996	863.91103	27.72990	215.83628	756.87513	10.81153	164.68240	718.57286	36.00072	84.02757	837.43906	29.40157	110.28427	724.91796	21.35913	195.72538	866.15646	-332.47988	245.94938	738.28426	-339.00881	86.84622	822.80752	-324.55568	144.16037	695.84825	-333.56225	201.86658	1055.89100	-26.90573	1.90569	1099.68455	-96.59223	184.93516	1036.47227	-284.97179	-4.77590	1090.66535	-200.25068	33.22199	1606.09465	-159.58564	86.45867	1568.12873	10.53913	88.05590	1587.19759	-305.71231	185.88353	1530.45515	-124.14243	188.45573	1529.56126	-179.53817	31.26400	1303.62931	99.56944	2.13863	1214.35989	20.13730	-0.25956	1220.61319	102.96310	53.15149	1072.00808	138.83798	92.93692	961.36214	142.71074	47.23917	963.15094	146.45897	105.34853	1346.01582	-423.57712	68.70307	1236.28333	-381.44825	99.38766	1256.87795	-444.54934	238.74906	1144.66578	-439.17941	316.57796	1088.37524	-413.63394	295.36365	1062.16667	-436.13906	111.66064	981.38679	-23.05797	99.71322	963.91100	-252.44898	121.29955	983.28087	-52.38992	110.32990	968.47277	-222.56362	
